<svg xmlns="http://www.w3.org/2000/svg" xmlns:xlink="http://www.w3.org/1999/xlink" width="5382" zoomAndPan="magnify" viewBox="0 0 4036.5 992.249974" height="1323" preserveAspectRatio="xMidYMid meet" version="1.2"><defs><clipPath id="df79e95d5b"><path d="M 1.273438 123 L 4034.726562 123 L 4034.726562 893 L 1.273438 893 Z M 1.273438 123 "/></clipPath><clipPath id="8937ab37ec"><rect x="0" width="4034" y="0" height="770"/></clipPath></defs><g id="16674721e2"><g clip-rule="nonzero" clip-path="url(#df79e95d5b)"><g transform="matrix(1,0,0,1,1,123)"><g clip-path="url(#8937ab37ec)"><path style=" stroke:none;fill-rule:nonzero;fill:#2155c9;fill-opacity:1;" d="M 696.226562 366.429688 C 696.226562 390.117188 694.609375 411.335938 691.457031 430.164062 L 211.398438 430.164062 C 215.230469 477.710938 231.839844 514.945312 261.140625 541.957031 C 290.441406 568.796875 326.386719 582.175781 369.144531 582.175781 C 430.644531 582.175781 474.511719 555.761719 500.660156 502.761719 L 679.53125 502.761719 C 660.625 565.988281 624.339844 617.878906 570.503906 658.523438 C 516.671875 699.25 450.660156 719.53125 372.554688 719.53125 C 309.351562 719.53125 252.707031 705.554688 202.539062 677.609375 C 152.285156 649.488281 113.101562 609.699219 84.992188 558.316406 C 57.054688 507.023438 43.085938 447.71875 43.085938 380.40625 C 43.085938 312.496094 56.800781 252.847656 84.3125 201.46875 C 111.996094 150.175781 150.75 110.636719 200.496094 82.859375 C 250.410156 55.167969 307.816406 41.277344 372.554688 41.277344 C 434.988281 41.277344 490.863281 54.828125 540.183594 81.835938 C 589.671875 108.679688 628.085938 146.851562 655.34375 196.355469 C 682.597656 245.691406 696.226562 302.355469 696.226562 366.429688 Z M 524.167969 318.714844 C 523.488281 276.28125 507.984375 242.199219 477.832031 216.464844 C 447.851562 190.5625 411.136719 177.609375 367.785156 177.609375 C 326.640625 177.609375 291.976562 190.136719 263.867188 215.101562 C 235.929688 240.152344 218.722656 274.664062 212.417969 318.714844 Z M 524.167969 318.714844 "/><path style=" stroke:none;fill-rule:nonzero;fill:#2155c9;fill-opacity:1;" d="M 1423.320312 378.019531 C 1423.320312 311.726562 1436.4375 252.847656 1462.84375 201.46875 C 1489.417969 150.175781 1525.363281 110.636719 1570.847656 82.859375 C 1616.246094 55.167969 1667.011719 41.277344 1723.144531 41.277344 C 1772.207031 41.277344 1814.964844 51.164062 1851.59375 70.929688 C 1888.390625 90.699219 1917.859375 115.578125 1940.175781 145.574219 L 1940.175781 52.183594 L 2107.125 52.183594 L 2107.125 708.964844 L 1940.175781 708.964844 L 1940.175781 612.851562 C 1918.796875 643.78125 1889.242188 669.34375 1851.59375 689.539062 C 1814.113281 709.476562 1770.929688 719.53125 1722.121094 719.53125 C 1666.671875 719.53125 1616.246094 705.386719 1570.847656 676.925781 C 1525.363281 648.550781 1489.417969 608.417969 1462.84375 556.613281 C 1436.4375 504.808594 1423.320312 445.332031 1423.320312 378.019531 Z M 1940.175781 380.40625 C 1940.175781 340.1875 1932.171875 305.675781 1916.328125 276.792969 C 1900.398438 247.992188 1879.019531 225.839844 1852.273438 210.332031 C 1825.441406 194.90625 1796.566406 187.152344 1765.734375 187.152344 C 1735.070312 187.152344 1706.621094 194.652344 1680.554688 209.648438 C 1654.40625 224.644531 1633.195312 246.628906 1616.84375 275.429688 C 1600.660156 304.3125 1592.652344 338.484375 1592.652344 378.019531 C 1592.652344 417.554688 1600.660156 452.234375 1616.84375 481.972656 C 1633.195312 511.539062 1654.492188 534.289062 1680.894531 550.136719 C 1707.472656 565.816406 1735.75 573.65625 1765.734375 573.65625 C 1796.566406 573.65625 1825.441406 566.070312 1852.273438 550.820312 C 1879.019531 535.398438 1900.398438 513.242188 1916.328125 484.359375 C 1932.171875 455.558594 1940.175781 420.878906 1940.175781 380.40625 Z M 1940.175781 380.40625 "/><path style=" stroke:none;fill-rule:nonzero;fill:#2155c9;fill-opacity:1;" d="M 2358.429688 145.222656 C 2379.726562 110.457031 2407.578125 83.191406 2441.90625 63.421875 C 2476.402344 43.65625 2515.839844 33.769531 2560.128906 33.769531 L 2560.128906 207.933594 L 2516.179688 207.933594 C 2463.878906 207.933594 2424.527344 220.203125 2397.953125 244.746094 C 2371.546875 269.285156 2358.429688 312.058594 2358.429688 372.894531 L 2358.429688 700.09375 L 2192.503906 700.09375 L 2192.503906 43.3125 L 2358.429688 43.3125 Z M 2358.429688 145.222656 "/><path style=" stroke:none;fill-rule:nonzero;fill:#2155c9;fill-opacity:1;" d="M 2955.320312 547.058594 L 3121.246094 43.3125 L 3297.734375 43.3125 L 3054.804688 700.09375 L 2853.445312 700.09375 L 2611.542969 43.3125 L 2789.394531 43.3125 Z M 2955.320312 547.058594 "/><path style=" stroke:none;fill-rule:nonzero;fill:#2155c9;fill-opacity:1;" d="M 3264.921875 364.894531 C 3264.921875 298.605469 3278.039062 239.726562 3304.445312 188.347656 C 3331.019531 137.050781 3366.964844 97.515625 3412.449219 69.738281 C 3457.847656 42.042969 3508.613281 28.15625 3564.746094 28.15625 C 3613.808594 28.15625 3656.566406 38.039062 3693.195312 57.808594 C 3729.992188 77.578125 3759.460938 102.457031 3781.777344 132.449219 L 3781.777344 39.0625 L 3948.726562 39.0625 L 3948.726562 695.839844 L 3781.777344 695.839844 L 3781.777344 599.726562 C 3760.398438 630.65625 3730.84375 656.21875 3693.195312 676.414062 C 3655.714844 696.351562 3612.53125 706.40625 3563.722656 706.40625 C 3508.273438 706.40625 3457.847656 692.261719 3412.449219 663.804688 C 3366.964844 635.429688 3331.019531 595.296875 3304.445312 543.492188 C 3278.039062 491.683594 3264.921875 432.210938 3264.921875 364.894531 Z M 3781.777344 367.28125 C 3781.777344 327.0625 3773.773438 292.554688 3757.929688 263.667969 C 3742 234.871094 3720.621094 212.714844 3693.875 197.207031 C 3667.042969 181.785156 3638.167969 174.03125 3607.335938 174.03125 C 3576.671875 174.03125 3548.222656 181.53125 3522.15625 196.527344 C 3496.007812 211.523438 3474.800781 233.507812 3458.445312 262.304688 C 3442.261719 291.191406 3434.253906 325.359375 3434.253906 364.894531 C 3434.253906 404.433594 3442.261719 439.113281 3458.445312 468.847656 C 3474.800781 498.414062 3496.09375 521.167969 3522.5 537.015625 C 3549.074219 552.691406 3577.351562 560.53125 3607.335938 560.53125 C 3638.167969 560.53125 3667.042969 552.949219 3693.875 537.695312 C 3720.621094 522.273438 3742 500.121094 3757.929688 471.234375 C 3773.773438 442.433594 3781.777344 407.753906 3781.777344 367.28125 Z M 3781.777344 367.28125 "/><path style=" stroke:none;fill-rule:nonzero;fill:#2155c9;fill-opacity:1;" d="M 1116.40625 33.769531 C 1194.769531 33.769531 1257.96875 58.566406 1306.179688 108.070312 C 1354.304688 157.40625 1378.410156 226.253906 1378.410156 314.613281 L 1378.410156 700.09375 L 1212.484375 700.09375 L 1212.484375 337.109375 C 1212.484375 285.132812 1199.367188 245.085938 1173.304688 217.136719 C 1147.15625 189.019531 1111.636719 174.875 1066.660156 174.875 C 1020.75 174.875 984.550781 189.019531 957.976562 217.136719 C 931.570312 245.085938 918.453125 285.132812 918.453125 337.109375 L 918.453125 700.09375 L 752.527344 700.09375 L 752.527344 43.3125 L 918.453125 43.3125 L 918.453125 125.113281 C 940.683594 96.484375 968.964844 74.160156 1003.289062 57.96875 C 1037.53125 41.867188 1075.265625 33.769531 1116.40625 33.769531 Z M 1116.40625 33.769531 "/></g></g></g></g></svg>